<?xml version="1.0"?>
<svg xmlns="http://www.w3.org/2000/svg" id="Layer_1" data-name="Layer 1" viewBox="0 0 512 512" width="512" height="512"><title>Page</title><path d="M432.226,21H79.774A7.57,7.57,0,0,0,72,28.713V483.287A7.57,7.57,0,0,0,79.774,491h269.2a7.869,7.869,0,0,0,5.768-2.313l83.143-86.559a7.723,7.723,0,0,0,2.12-5.472V28.713A7.57,7.57,0,0,0,432.226,21ZM88,37H424V389H348.969A7.687,7.687,0,0,0,341,396.656V475H88ZM413.441,405,357,463.417V405Z"/><path d="M137.923,203H367.635a8,8,0,0,0,0-16H137.923a8,8,0,0,0,0,16Z"/><path d="M137.923,147H271a8,8,0,0,0,0-16H137.923a8,8,0,0,0,0,16Z"/><path d="M367.635,255a8,8,0,0,0,0-16H137.923a8,8,0,0,0,0,16Z"/></svg>
